<?xml version="1.0" standalone="no"?><!-- Generator: Gravit.io --><svg xmlns="http://www.w3.org/2000/svg" xmlns:xlink="http://www.w3.org/1999/xlink" style="isolation:isolate" viewBox="0 0 58.523 56" width="58.523" height="56"><defs><clipPath id="_clipPath_A8MkRAmKXLixesn4fzahCYsZtNOmaz5z"><rect width="58.523" height="56"/></clipPath></defs><g clip-path="url(#_clipPath_A8MkRAmKXLixesn4fzahCYsZtNOmaz5z)"><path d=" M 42.504 6.801 C 44.383 6.801 45.906 5.278 45.906 3.4 C 45.906 1.522 44.383 0 42.504 0 C 40.625 0 39.102 1.522 39.102 3.4 C 39.102 5.278 40.625 6.801 42.504 6.801 Z " fill="rgb(255,255,255)"/><path d=" M 43.451 15.194 C 45.045 15.194 46.336 13.903 46.336 12.311 C 46.336 10.718 45.045 9.427 43.451 9.427 C 41.858 9.427 40.566 10.718 40.566 12.311 C 40.566 13.903 41.858 15.194 43.451 15.194 Z " fill="rgb(255,255,255)"/><path d=" M 42.547 22.254 C 43.879 22.254 44.958 21.174 44.958 19.843 C 44.958 18.512 43.879 17.433 42.547 17.433 C 41.215 17.433 40.135 18.512 40.135 19.843 C 40.135 21.174 41.215 22.254 42.547 22.254 Z " fill="rgb(255,255,255)"/><path d=" M 40.35 27.979 C 41.492 27.979 42.417 27.053 42.417 25.912 C 42.417 24.771 41.492 23.846 40.35 23.846 C 39.209 23.846 38.283 24.771 38.283 25.912 C 38.283 27.053 39.209 27.979 40.35 27.979 Z " fill="rgb(255,255,255)"/><path d=" M 37.336 32.283 C 38.311 32.283 39.102 31.493 39.102 30.518 C 39.102 29.543 38.311 28.753 37.336 28.753 C 36.361 28.753 35.57 29.543 35.57 30.518 C 35.57 31.493 36.361 32.283 37.336 32.283 Z " fill="rgb(255,255,255)"/><path d=" M 34.02 35.296 C 34.853 35.296 35.527 34.621 35.527 33.789 C 35.527 32.957 34.853 32.283 34.02 32.283 C 33.188 32.283 32.513 32.957 32.513 33.789 C 32.513 34.621 33.188 35.296 34.02 35.296 Z " fill="rgb(255,255,255)"/><path d=" M 51.03 16.271 C 52.624 16.271 53.915 14.979 53.915 13.387 C 53.915 11.794 52.624 10.503 51.03 10.503 C 49.437 10.503 48.145 11.794 48.145 13.387 C 48.145 14.979 49.437 16.271 51.03 16.271 Z " fill="rgb(255,255,255)"/><path d=" M 50.083 23.373 C 51.438 23.373 52.537 22.274 52.537 20.919 C 52.537 19.564 51.438 18.466 50.083 18.466 C 48.727 18.466 47.628 19.564 47.628 20.919 C 47.628 22.274 48.727 23.373 50.083 23.373 Z " fill="rgb(255,255,255)"/><path d=" M 47.887 29.055 C 49.028 29.055 49.954 28.13 49.954 26.989 C 49.954 25.847 49.028 24.922 47.887 24.922 C 46.745 24.922 45.82 25.847 45.82 26.989 C 45.82 28.13 46.745 29.055 47.887 29.055 Z " fill="rgb(255,255,255)"/><path d=" M 44.872 33.359 C 45.847 33.359 46.638 32.569 46.638 31.594 C 46.638 30.62 45.847 29.829 44.872 29.829 C 43.897 29.829 43.106 30.62 43.106 31.594 C 43.106 32.569 43.897 33.359 44.872 33.359 Z " fill="rgb(255,255,255)"/><path d=" M 41.513 36.329 C 42.346 36.329 43.02 35.655 43.02 34.823 C 43.02 33.99 42.346 33.316 41.513 33.316 C 40.681 33.316 40.006 33.99 40.006 34.823 C 40.006 35.655 40.681 36.329 41.513 36.329 Z " fill="rgb(255,255,255)"/><path d=" M 38.111 38.18 C 38.825 38.18 39.403 37.602 39.403 36.889 C 39.403 36.175 38.825 35.597 38.111 35.597 C 37.398 35.597 36.819 36.175 36.819 36.889 C 36.819 37.602 37.398 38.18 38.111 38.18 Z " fill="rgb(255,255,255)"/><path d=" M 56.069 25.611 C 57.424 25.611 58.523 24.513 58.523 23.158 C 58.523 21.803 57.424 20.704 56.069 20.704 C 54.713 20.704 53.614 21.803 53.614 23.158 C 53.614 24.513 54.713 25.611 56.069 25.611 Z " fill="rgb(255,255,255)"/><path d=" M 53.829 31.293 C 54.971 31.293 55.896 30.368 55.896 29.227 C 55.896 28.086 54.971 27.161 53.829 27.161 C 52.688 27.161 51.762 28.086 51.762 29.227 C 51.762 30.368 52.688 31.293 53.829 31.293 Z " fill="rgb(255,255,255)"/><path d=" M 50.858 35.64 C 51.857 35.64 52.667 34.831 52.667 33.832 C 52.667 32.834 51.857 32.025 50.858 32.025 C 49.859 32.025 49.049 32.834 49.049 33.832 C 49.049 34.831 49.859 35.64 50.858 35.64 Z " fill="rgb(255,255,255)"/><path d=" M 47.499 38.653 C 48.355 38.653 49.049 37.96 49.049 37.104 C 49.049 36.248 48.355 35.554 47.499 35.554 C 46.643 35.554 45.949 36.248 45.949 37.104 C 45.949 37.96 46.643 38.653 47.499 38.653 Z " fill="rgb(255,255,255)"/><path d=" M 44.097 40.504 C 44.834 40.504 45.432 39.907 45.432 39.17 C 45.432 38.433 44.834 37.836 44.097 37.836 C 43.36 37.836 42.762 38.433 42.762 39.17 C 42.762 39.907 43.36 40.504 44.097 40.504 Z " fill="rgb(255,255,255)"/><path d=" M 40.91 41.322 C 41.529 41.322 42.03 40.821 42.03 40.203 C 42.03 39.585 41.529 39.084 40.91 39.084 C 40.292 39.084 39.791 39.585 39.791 40.203 C 39.791 40.821 40.292 41.322 40.91 41.322 Z " fill="rgb(255,255,255)"/><path d=" M 46.379 54.149 C 48.258 54.149 49.781 52.627 49.781 50.749 C 49.781 48.871 48.258 47.348 46.379 47.348 C 44.5 47.348 42.977 48.871 42.977 50.749 C 42.977 52.627 44.5 54.149 46.379 54.149 Z " fill="rgb(255,255,255)"/><path d=" M 38.154 49.974 C 39.748 49.974 41.039 48.683 41.039 47.09 C 41.039 45.497 39.748 44.206 38.154 44.206 C 36.561 44.206 35.269 45.497 35.269 47.09 C 35.269 48.683 36.561 49.974 38.154 49.974 Z " fill="rgb(255,255,255)"/><path d=" M 34.464 42.958 C 34.677 41.644 33.784 40.405 32.47 40.192 C 31.155 39.979 29.916 40.871 29.703 42.185 C 29.49 43.499 30.382 44.738 31.697 44.951 C 33.012 45.164 34.25 44.272 34.464 42.958 Z " fill="rgb(255,255,255)"/><path d=" M 27.905 39.686 C 29.047 39.686 29.972 38.761 29.972 37.62 C 29.972 36.479 29.047 35.554 27.905 35.554 C 26.764 35.554 25.838 36.479 25.838 37.62 C 25.838 38.761 26.764 39.686 27.905 39.686 Z " fill="rgb(255,255,255)"/><path d=" M 25.407 34.478 C 26.383 34.478 27.173 33.688 27.173 32.713 C 27.173 31.739 26.383 30.949 25.407 30.949 C 24.432 30.949 23.642 31.739 23.642 32.713 C 23.642 33.688 24.432 34.478 25.407 34.478 Z " fill="rgb(255,255,255)"/><path d=" M 24.245 29.7 C 25.077 29.7 25.752 29.026 25.752 28.194 C 25.752 27.362 25.077 26.687 24.245 26.687 C 23.412 26.687 22.737 27.362 22.737 28.194 C 22.737 29.026 23.412 29.7 24.245 29.7 Z " fill="rgb(255,255,255)"/><path d=" M 33.46 56 C 35.054 56 36.346 54.709 36.346 53.116 C 36.346 51.523 35.054 50.232 33.46 50.232 C 31.867 50.232 30.575 51.523 30.575 53.116 C 30.575 54.709 31.867 56 33.46 56 Z " fill="rgb(255,255,255)"/><path d=" M 27.388 50.964 C 28.744 50.964 29.843 49.865 29.843 48.51 C 29.843 47.155 28.744 46.057 27.388 46.057 C 26.033 46.057 24.934 47.155 24.934 48.51 C 24.934 49.865 26.033 50.964 27.388 50.964 Z " fill="rgb(255,255,255)"/><path d=" M 23.211 45.67 C 24.353 45.67 25.278 44.745 25.278 43.603 C 25.278 42.462 24.353 41.537 23.211 41.537 C 22.07 41.537 21.144 42.462 21.144 43.603 C 21.144 44.745 22.07 45.67 23.211 45.67 Z " fill="rgb(255,255,255)"/><path d=" M 20.714 40.461 C 21.689 40.461 22.479 39.671 22.479 38.696 C 22.479 37.722 21.689 36.932 20.714 36.932 C 19.738 36.932 18.948 37.722 18.948 38.696 C 18.948 39.671 19.738 40.461 20.714 40.461 Z " fill="rgb(255,255,255)"/><path d=" M 19.637 35.683 C 20.469 35.683 21.144 35.009 21.144 34.177 C 21.144 33.345 20.469 32.67 19.637 32.67 C 18.805 32.67 18.13 33.345 18.13 34.177 C 18.13 35.009 18.805 35.683 19.637 35.683 Z " fill="rgb(255,255,255)"/><path d=" M 19.551 31.508 C 20.264 31.508 20.843 30.93 20.843 30.217 C 20.843 29.504 20.264 28.925 19.551 28.925 C 18.837 28.925 18.259 29.504 18.259 30.217 C 18.259 30.93 18.837 31.508 19.551 31.508 Z " fill="rgb(255,255,255)"/><path d=" M 22.479 55.053 C 23.835 55.053 24.934 53.955 24.934 52.6 C 24.934 51.245 23.835 50.146 22.479 50.146 C 21.123 50.146 20.024 51.245 20.024 52.6 C 20.024 53.955 21.123 55.053 22.479 55.053 Z " fill="rgb(255,255,255)"/><path d=" M 18.302 49.716 C 19.444 49.716 20.369 48.791 20.369 47.65 C 20.369 46.508 19.444 45.583 18.302 45.583 C 17.16 45.583 16.235 46.508 16.235 47.65 C 16.235 48.791 17.16 49.716 18.302 49.716 Z " fill="rgb(255,255,255)"/><path d=" M 15.804 44.593 C 16.803 44.593 17.613 43.784 17.613 42.786 C 17.613 41.787 16.803 40.978 15.804 40.978 C 14.805 40.978 13.996 41.787 13.996 42.786 C 13.996 43.784 14.805 44.593 15.804 44.593 Z " fill="rgb(255,255,255)"/><path d=" M 14.642 39.773 C 15.498 39.773 16.192 39.079 16.192 38.223 C 16.192 37.367 15.498 36.673 14.642 36.673 C 13.785 36.673 13.091 37.367 13.091 38.223 C 13.091 39.079 13.785 39.773 14.642 39.773 Z " fill="rgb(255,255,255)"/><path d=" M 14.556 35.597 C 15.293 35.597 15.891 35 15.891 34.263 C 15.891 33.526 15.293 32.929 14.556 32.929 C 13.818 32.929 13.221 33.526 13.221 34.263 C 13.221 35 13.818 35.597 14.556 35.597 Z " fill="rgb(255,255,255)"/><path d=" M 15.244 32.068 C 15.863 32.068 16.364 31.567 16.364 30.949 C 16.364 30.33 15.863 29.829 15.244 29.829 C 14.626 29.829 14.125 30.33 14.125 30.949 C 14.125 31.567 14.626 32.068 15.244 32.068 Z " fill="rgb(255,255,255)"/><path d=" M 3.402 33.832 C 5.281 33.832 6.804 32.31 6.804 30.432 C 6.804 28.554 5.281 27.032 3.402 27.032 C 1.523 27.032 0 28.554 0 30.432 C 0 32.31 1.523 33.832 3.402 33.832 Z " fill="rgb(255,255,255)"/><path d=" M 10.637 28.022 C 12.23 28.022 13.522 26.73 13.522 25.138 C 13.522 23.545 12.23 22.254 10.637 22.254 C 9.043 22.254 7.751 23.545 7.751 25.138 C 7.751 26.73 9.043 28.022 10.637 28.022 Z " fill="rgb(255,255,255)"/><path d=" M 17.613 24.578 C 18.945 24.578 20.024 23.499 20.024 22.168 C 20.024 20.836 18.945 19.757 17.613 19.757 C 16.281 19.757 15.201 20.836 15.201 22.168 C 15.201 23.499 16.281 24.578 17.613 24.578 Z " fill="rgb(255,255,255)"/><path d=" M 23.986 23.115 C 25.128 23.115 26.053 22.19 26.053 21.048 C 26.053 19.907 25.128 18.982 23.986 18.982 C 22.845 18.982 21.919 19.907 21.919 21.048 C 21.919 22.19 22.845 23.115 23.986 23.115 Z " fill="rgb(255,255,255)"/><path d=" M 29.455 23.072 C 30.43 23.072 31.221 22.281 31.221 21.307 C 31.221 20.332 30.43 19.542 29.455 19.542 C 28.48 19.542 27.69 20.332 27.69 21.307 C 27.69 22.281 28.48 23.072 29.455 23.072 Z " fill="rgb(255,255,255)"/><path d=" M 33.977 24.148 C 34.833 24.148 35.527 23.454 35.527 22.598 C 35.527 21.742 34.833 21.048 33.977 21.048 C 33.121 21.048 32.427 21.742 32.427 22.598 C 32.427 23.454 33.121 24.148 33.977 24.148 Z " fill="rgb(255,255,255)"/><path d=" M 6.933 15.324 C 8.44 14.85 10.077 15.711 10.508 17.261 C 10.981 18.767 10.12 20.403 8.57 20.833 C 7.062 21.307 5.426 20.446 4.995 18.896 C 4.565 17.39 5.426 15.754 6.933 15.324 Z " fill="rgb(255,255,255)"/><path d=" M 14.814 17.562 C 16.17 17.562 17.269 16.463 17.269 15.108 C 17.269 13.753 16.17 12.655 14.814 12.655 C 13.458 12.655 12.359 13.753 12.359 15.108 C 12.359 16.463 13.458 17.562 14.814 17.562 Z " fill="rgb(255,255,255)"/><path d=" M 21.144 16.055 C 22.286 16.055 23.211 15.13 23.211 13.989 C 23.211 12.848 22.286 11.923 21.144 11.923 C 20.003 11.923 19.077 12.848 19.077 13.989 C 19.077 15.13 20.003 16.055 21.144 16.055 Z " fill="rgb(255,255,255)"/><path d=" M 26.656 16.055 C 27.631 16.055 28.422 15.265 28.422 14.291 C 28.422 13.316 27.631 12.526 26.656 12.526 C 25.681 12.526 24.891 13.316 24.891 14.291 C 24.891 15.265 25.681 16.055 26.656 16.055 Z " fill="rgb(255,255,255)"/><path d=" M 32.528 16.16 C 32.847 15.391 32.482 14.51 31.713 14.191 C 30.944 13.873 30.062 14.238 29.743 15.007 C 29.425 15.775 29.79 16.657 30.559 16.975 C 31.328 17.294 32.21 16.929 32.528 16.16 Z " fill="rgb(255,255,255)"/><path d=" M 34.623 18.81 C 35.337 18.81 35.915 18.232 35.915 17.519 C 35.915 16.806 35.337 16.228 34.623 16.228 C 33.91 16.228 33.331 16.806 33.331 17.519 C 33.331 18.232 33.91 18.81 34.623 18.81 Z " fill="rgb(255,255,255)"/><path d=" M 13.737 11.278 C 15.093 11.278 16.192 10.179 16.192 8.824 C 16.192 7.469 15.093 6.37 13.737 6.37 C 12.382 6.37 11.283 7.469 11.283 8.824 C 11.283 10.179 12.382 11.278 13.737 11.278 Z " fill="rgb(255,255,255)"/><path d=" M 19.981 5.639 C 21.144 5.553 22.135 6.414 22.221 7.576 C 22.307 8.738 21.446 9.728 20.283 9.814 C 19.12 9.9 18.13 9.039 18.044 7.877 C 17.957 6.715 18.819 5.725 19.981 5.639 Z " fill="rgb(255,255,255)"/><path d=" M 25.58 9.771 C 26.579 9.771 27.388 8.962 27.388 7.963 C 27.388 6.965 26.579 6.155 25.58 6.155 C 24.581 6.155 23.771 6.965 23.771 7.963 C 23.771 8.962 24.581 9.771 25.58 9.771 Z " fill="rgb(255,255,255)"/><path d=" M 30.101 10.804 C 30.958 10.804 31.652 10.11 31.652 9.254 C 31.652 8.399 30.958 7.705 30.101 7.705 C 29.245 7.705 28.551 8.399 28.551 9.254 C 28.551 10.11 29.245 10.804 30.101 10.804 Z " fill="rgb(255,255,255)"/><path d=" M 33.59 12.483 C 34.327 12.483 34.924 11.885 34.924 11.148 C 34.924 10.411 34.327 9.814 33.59 9.814 C 32.852 9.814 32.255 10.411 32.255 11.148 C 32.255 11.885 32.852 12.483 33.59 12.483 Z " fill="rgb(255,255,255)"/><path d=" M 36.044 12.268 C 36.69 12.224 37.207 12.698 37.25 13.301 C 37.293 13.946 36.819 14.463 36.216 14.506 C 35.57 14.549 35.054 14.075 35.011 13.473 C 34.925 12.87 35.398 12.311 36.044 12.268 Z " fill="rgb(255,255,255)"/></g></svg>