<svg width="92" height="129" xmlns="http://www.w3.org/2000/svg"><g fill-rule="nonzero" fill="none"><path fill="#FFF" d="M84.924 1.212L1.718.675.9 127.44l90.027.581.818-126.765z"/><path fill="#20A49D" d="M12.97 18.929l67.288.434-.093 14.523-67.29-.434z"/><path fill="#373E46" d="M18.528 71.448l55.459.358-.006.923-55.459-.358zM18.496 76.42l55.459.358-.006.923-55.459-.358zM18.464 81.426l55.459.358-.006.923-55.459-.357zM18.432 86.433l55.458.358-.006.923-55.458-.358zM18.4 91.44l55.458.358-.006.923-55.459-.358zM18.366 96.447l55.459.358-.006.923-55.459-.358zM18.335 101.418l55.458.358-.006.923-55.458-.358z"/><path d="M40.744 43.608a1.395 1.395 0 1 1 .033-2.789 1.395 1.395 0 0 1-.033 2.79zM40.312 47.045a1.183 1.183 0 1 1 .029-2.366 1.183 1.183 0 0 1-.029 2.366zM40.648 49.943a.989.989 0 1 1 .024-1.978.989.989 0 0 1-.024 1.977zM41.52 52.3a.847.847 0 1 1 .02-1.694.847.847 0 0 1-.02 1.695zM42.734 54.08a.724.724 0 1 1 .017-1.447.724.724 0 0 1-.017 1.447zM44.078 55.333a.618.618 0 1 1 .015-1.236.618.618 0 0 1-.015 1.236zM37.199 47.447a1.183 1.183 0 1 1 .028-2.365 1.183 1.183 0 0 1-.028 2.365zM37.551 50.364a1.006 1.006 0 1 1 .024-2.013 1.006 1.006 0 0 1-.024 2.013zM38.423 52.704a.847.847 0 1 1 .02-1.695.847.847 0 0 1-.02 1.695zM39.637 54.484a.724.724 0 1 1 .017-1.447.724.724 0 0 1-.017 1.447zM41 55.719a.618.618 0 1 1 .015-1.236A.618.618 0 0 1 41 55.72zM42.386 56.494a.53.53 0 1 1 .012-1.059.53.53 0 0 1-.012 1.059zM35.085 51.251a1.006 1.006 0 1 1 .024-2.013 1.006 1.006 0 0 1-.024 2.013zM35.975 53.591a.847.847 0 1 1 .02-1.695.847.847 0 0 1-.02 1.695zM37.171 55.388a.741.741 0 1 1 .018-1.483.741.741 0 0 1-.018 1.483zM38.534 56.64a.636.636 0 1 1 .015-1.271.636.636 0 0 1-.015 1.271zM39.92 57.417a.547.547 0 1 1 .012-1.095.547.547 0 0 1-.013 1.095zM41.222 57.768a.459.459 0 1 1 .011-.918.459.459 0 0 1-.01.918zM38.914 62.998a1.395 1.395 0 1 1 .033-2.79 1.395 1.395 0 0 1-.033 2.79zM42.309 61.328a1.183 1.183 0 1 1 .028-2.365 1.183 1.183 0 0 1-.029 2.365zM43.858 58.47a.988.988 0 1 1 1.955-.291.988.988 0 0 1-1.955.292zM46.564 57.163a.847.847 0 1 1 .02-1.695.847.847 0 0 1-.02 1.695zM47.615 55.04a.724.724 0 1 1 .017-1.447.724.724 0 0 1-.017 1.447zM48.116 53.088a.618.618 0 1 1 .014-1.235.618.618 0 0 1-.014 1.235zM44.203 63.822a1.183 1.183 0 1 1 .028-2.365 1.183 1.183 0 0 1-.028 2.365zM46.718 61.79a1.006 1.006 0 1 1 .024-2.013 1.006 1.006 0 0 1-.023 2.012zM48.459 59.64a.847.847 0 1 1 .02-1.695.847.847 0 0 1-.02 1.695zM49.51 57.517a.724.724 0 1 1 .017-1.447.724.724 0 0 1-.017 1.447zM49.975 55.564a.618.618 0 1 1 .015-1.235.618.618 0 0 1-.015 1.235zM50.032 53.853a.53.53 0 1 1 .012-1.059.53.53 0 0 1-.012 1.06zM48.711 63.49a1.006 1.006 0 1 1 .025-2.013 1.006 1.006 0 0 1-.025 2.013zM50.452 61.323a.847.847 0 1 1 .02-1.695.847.847 0 0 1-.02 1.695zM51.502 59.236a.742.742 0 1 1 .018-1.483.742.742 0 0 1-.018 1.483zM52.003 57.266a.636.636 0 1 1 .015-1.271.636.636 0 0 1-.015 1.271zM52.06 55.555a.547.547 0 1 1 .012-1.095.547.547 0 0 1-.013 1.095zM51.795 54.104a.459.459 0 1 1 .01-.918.459.459 0 0 1-.01.918zM56.643 54.888a1.395 1.395 0 1 1 .033-2.79 1.395 1.395 0 0 1-.033 2.79zM53.705 52.47a1.183 1.183 0 1 1 .028-2.366 1.183 1.183 0 0 1-.028 2.365zM50.862 51.023a.989.989 0 1 1 .023-1.977.989.989 0 0 1-.023 1.977zM48.255 50.39a.847.847 0 1 1 .02-1.695.847.847 0 0 1-.02 1.695zM46.012 50.345a.724.724 0 1 1 .018-1.448.724.724 0 0 1-.018 1.448zM44.153 50.763a.636.636 0 1 1 .014-1.27.636.636 0 0 1-.014 1.27zM55.288 47.283a1.162 1.162 0 0 0-1.475.776 1.16 1.16 0 0 0 .776 1.474 1.162 1.162 0 0 0 1.476-.776c.184-.615-.16-1.29-.776-1.474zM52.045 48.16a1.006 1.006 0 1 1 .024-2.012 1.006 1.006 0 0 1-.024 2.013zM49.456 47.511a.847.847 0 1 1 .02-1.695.847.847 0 0 1-.02 1.695zM47.196 47.483a.724.724 0 1 1 .017-1.447.724.724 0 0 1-.017 1.447zM44.787 47.495a.617.617 0 1 1 1.147-.458.617.617 0 0 1-1.147.458zM43.915 48.572a.53.53 0 1 1 .012-1.06.53.53 0 0 1-.012 1.06zM52.518 45.59a1.006 1.006 0 1 1 .024-2.013 1.006 1.006 0 0 1-.024 2.012zM49.986 43.247a.854.854 0 0 0-.928.783.853.853 0 0 0 .783.927.854.854 0 0 0 .928-.783.853.853 0 0 0-.783-.927zM47.67 44.912a.742.742 0 1 1 .017-1.483.742.742 0 0 1-.018 1.483zM45.81 45.312a.636.636 0 1 1 .015-1.27.636.636 0 0 1-.015 1.27zM44.37 45.983a.547.547 0 1 1 .013-1.094.547.547 0 0 1-.013 1.094zM43.365 45.883a.458.458 0 0 0-.5.417.458.458 0 0 0 .418.5c.264.02.479-.171.5-.418.038-.247-.154-.478-.418-.5z" fill="#3F3F3F"/></g></svg>