<svg width="167" height="56" viewBox="0 0 167 56" fill="none" xmlns="http://www.w3.org/2000/svg">
<g clip-path="url(#clip0)">
<path d="M67.179 14.1183H68.9446V42.7425H67.179V14.1183Z" fill="white"/>
<path d="M108.735 28.4089C108.735 30.475 108.434 32.455 107.831 34.2629C107.228 36.1137 106.324 37.6633 105.161 39.0407C103.998 40.3751 102.577 41.4512 100.898 42.226C99.2182 43.0008 97.3234 43.3882 95.1703 43.3882C93.0171 43.3882 91.1223 43.0008 89.3998 42.226C87.7203 41.4512 86.2561 40.3751 85.0934 39.0407C83.9307 37.7064 83.0264 36.1137 82.4235 34.2629C81.8206 32.455 81.5192 30.475 81.5192 28.4089C81.5192 26.3428 81.8206 24.3628 82.4235 22.5549C83.0264 20.7041 83.9307 19.1545 85.0934 17.7771C86.2561 16.4427 87.6772 15.3666 89.3998 14.5918C91.0792 13.8171 93.0171 13.4297 95.1703 13.4297C97.3234 13.4297 99.2182 13.8171 100.898 14.5918C102.577 15.3666 103.998 16.4427 105.161 17.7771C106.324 19.1114 107.228 20.7041 107.831 22.5549C108.391 24.4058 108.735 26.3428 108.735 28.4089ZM83.2848 28.4089C83.2848 30.2598 83.5431 31.9815 84.103 33.6172C84.6197 35.2529 85.3949 36.6733 86.4284 37.8785C87.4619 39.0838 88.6677 40.0738 90.1749 40.8055C91.6391 41.5373 93.3185 41.8816 95.1703 41.8816C97.022 41.8816 98.7015 41.5373 100.166 40.8055C101.63 40.0738 102.879 39.1268 103.869 37.8785C104.903 36.6733 105.678 35.2529 106.195 33.6172C106.711 31.9815 107.013 30.2598 107.013 28.4089C107.013 26.558 106.754 24.8363 106.195 23.2006C105.678 21.5649 104.903 20.1445 103.869 18.9393C102.836 17.734 101.63 16.744 100.166 16.0553C98.7015 15.3666 97.0651 14.9792 95.1703 14.9792C93.3185 14.9792 91.6391 15.3236 90.1749 16.0553C88.7108 16.7871 87.4619 17.734 86.4284 18.9393C85.3949 20.1445 84.6197 21.5649 84.103 23.2006C83.5431 24.8363 83.2848 26.6011 83.2848 28.4089Z" fill="white"/>
<path d="M116.142 15.6249V14.1183H138.061V15.6249H127.941V42.6994H126.176V15.6249H116.142Z" fill="white"/>
<path d="M144.133 42.6994H142.238L153.736 14.0753H155.674L167 42.6994H165.105L154.813 15.7971H154.727L144.133 42.6994Z" fill="white"/>
<path d="M42.5036 6.80092C44.3825 6.80092 45.9056 5.27848 45.9056 3.40046C45.9056 1.52244 44.3825 0 42.5036 0C40.6247 0 39.1016 1.52244 39.1016 3.40046C39.1016 5.27848 40.6247 6.80092 42.5036 6.80092Z" fill="white"/>
<path d="M43.451 15.1944C45.0445 15.1944 46.3363 13.9033 46.3363 12.3105C46.3363 10.7178 45.0445 9.42657 43.451 9.42657C41.8576 9.42657 40.5658 10.7178 40.5658 12.3105C40.5658 13.9033 41.8576 15.1944 43.451 15.1944Z" fill="white"/>
<path d="M42.5467 22.2536C43.8786 22.2536 44.9583 21.1744 44.9583 19.8432C44.9583 18.5119 43.8786 17.4327 42.5467 17.4327C41.2148 17.4327 40.1351 18.5119 40.1351 19.8432C40.1351 21.1744 41.2148 22.2536 42.5467 22.2536Z" fill="white"/>
<path d="M40.3504 27.9785C41.492 27.9785 42.4174 27.0534 42.4174 25.9124C42.4174 24.7713 41.492 23.8463 40.3504 23.8463C39.2088 23.8463 38.2833 24.7713 38.2833 25.9124C38.2833 27.0534 39.2088 27.9785 40.3504 27.9785Z" fill="white"/>
<path d="M37.336 32.2829C38.3111 32.2829 39.1016 31.4927 39.1016 30.5181C39.1016 29.5434 38.3111 28.7533 37.336 28.7533C36.3609 28.7533 35.5704 29.5434 35.5704 30.5181C35.5704 31.4927 36.3609 32.2829 37.336 32.2829Z" fill="white"/>
<path d="M34.02 35.2959C34.8525 35.2959 35.5273 34.6214 35.5273 33.7894C35.5273 32.9573 34.8525 32.2828 34.02 32.2828C33.1876 32.2828 32.5128 32.9573 32.5128 33.7894C32.5128 34.6214 33.1876 35.2959 34.02 35.2959Z" fill="white"/>
<path d="M51.0302 16.2706C52.6236 16.2706 53.9154 14.9794 53.9154 13.3866C53.9154 11.7939 52.6236 10.5027 51.0302 10.5027C49.4367 10.5027 48.1449 11.7939 48.1449 13.3866C48.1449 14.9794 49.4367 16.2706 51.0302 16.2706Z" fill="white"/>
<path d="M50.0828 23.3728C51.4384 23.3728 52.5374 22.2743 52.5374 20.9193C52.5374 19.5643 51.4384 18.4658 50.0828 18.4658C48.7271 18.4658 47.6282 19.5643 47.6282 20.9193C47.6282 22.2743 48.7271 23.3728 50.0828 23.3728Z" fill="white"/>
<path d="M47.8865 29.0546C49.0281 29.0546 49.9536 28.1295 49.9536 26.9885C49.9536 25.8474 49.0281 24.9224 47.8865 24.9224C46.7449 24.9224 45.8195 25.8474 45.8195 26.9885C45.8195 28.1295 46.7449 29.0546 47.8865 29.0546Z" fill="white"/>
<path d="M44.872 33.3589C45.8472 33.3589 46.6377 32.5688 46.6377 31.5941C46.6377 30.6195 45.8472 29.8293 44.872 29.8293C43.8969 29.8293 43.1064 30.6195 43.1064 31.5941C43.1064 32.5688 43.8969 33.3589 44.872 33.3589Z" fill="white"/>
<path d="M41.5132 36.329C42.3456 36.329 43.0204 35.6545 43.0204 34.8225C43.0204 33.9904 42.3456 33.3159 41.5132 33.3159C40.6808 33.3159 40.006 33.9904 40.006 34.8225C40.006 35.6545 40.6808 36.329 41.5132 36.329Z" fill="white"/>
<path d="M38.1111 38.1799C38.8246 38.1799 39.403 37.6017 39.403 36.8885C39.403 36.1754 38.8246 35.5972 38.1111 35.5972C37.3976 35.5972 36.8192 36.1754 36.8192 36.8885C36.8192 37.6017 37.3976 38.1799 38.1111 38.1799Z" fill="white"/>
<path d="M56.0686 25.6111C57.4243 25.6111 58.5232 24.5126 58.5232 23.1576C58.5232 21.8025 57.4243 20.7041 56.0686 20.7041C54.713 20.7041 53.614 21.8025 53.614 23.1576C53.614 24.5126 54.713 25.6111 56.0686 25.6111Z" fill="white"/>
<path d="M53.8293 31.2929C54.9709 31.2929 55.8963 30.3678 55.8963 29.2267C55.8963 28.0857 54.9709 27.1606 53.8293 27.1606C52.6877 27.1606 51.7622 28.0857 51.7622 29.2267C51.7622 30.3678 52.6877 31.2929 53.8293 31.2929Z" fill="white"/>
<path d="M50.858 35.6403C51.8569 35.6403 52.6666 34.8309 52.6666 33.8324C52.6666 32.834 51.8569 32.0246 50.858 32.0246C49.8591 32.0246 49.0493 32.834 49.0493 33.8324C49.0493 34.8309 49.8591 35.6403 50.858 35.6403Z" fill="white"/>
<path d="M47.4989 38.6533C48.3551 38.6533 49.0492 37.9595 49.0492 37.1037C49.0492 36.2479 48.3551 35.5542 47.4989 35.5542C46.6427 35.5542 45.9486 36.2479 45.9486 37.1037C45.9486 37.9595 46.6427 38.6533 47.4989 38.6533Z" fill="white"/>
<path d="M44.0969 40.5042C44.8342 40.5042 45.4319 39.9068 45.4319 39.1699C45.4319 38.4329 44.8342 37.8355 44.0969 37.8355C43.3596 37.8355 42.762 38.4329 42.762 39.1699C42.762 39.9068 43.3596 40.5042 44.0969 40.5042Z" fill="white"/>
<path d="M40.9102 41.322C41.5285 41.322 42.0298 40.821 42.0298 40.2029C42.0298 39.5848 41.5285 39.0838 40.9102 39.0838C40.2918 39.0838 39.7905 39.5848 39.7905 40.2029C39.7905 40.821 40.2918 41.322 40.9102 41.322Z" fill="white"/>
<path d="M46.3793 54.1491C48.2582 54.1491 49.7813 52.6267 49.7813 50.7486C49.7813 48.8706 48.2582 47.3482 46.3793 47.3482C44.5004 47.3482 42.9773 48.8706 42.9773 50.7486C42.9773 52.6267 44.5004 54.1491 46.3793 54.1491Z" fill="white"/>
<path d="M38.1542 49.9739C39.7477 49.9739 41.0394 48.6827 41.0394 47.0899C41.0394 45.4972 39.7477 44.206 38.1542 44.206C36.5607 44.206 35.2689 45.4972 35.2689 47.0899C35.2689 48.6827 36.5607 49.9739 38.1542 49.9739Z" fill="white"/>
<path d="M34.4637 42.9577C34.6771 41.6436 33.7843 40.4054 32.4696 40.1921C31.1549 39.9789 29.9162 40.8713 29.7029 42.1853C29.4895 43.4994 30.3823 44.7376 31.697 44.9509C33.0117 45.1641 34.2504 44.2717 34.4637 42.9577Z" fill="white"/>
<path d="M27.9052 39.6864C29.0468 39.6864 29.9722 38.7613 29.9722 37.6203C29.9722 36.4792 29.0468 35.5542 27.9052 35.5542C26.7636 35.5542 25.8381 36.4792 25.8381 37.6203C25.8381 38.7613 26.7636 39.6864 27.9052 39.6864Z" fill="white"/>
<path d="M25.4074 34.4781C26.3826 34.4781 27.1731 33.688 27.1731 32.7133C27.1731 31.7386 26.3826 30.9485 25.4074 30.9485C24.4323 30.9485 23.6418 31.7386 23.6418 32.7133C23.6418 33.688 24.4323 34.4781 25.4074 34.4781Z" fill="white"/>
<path d="M24.2446 29.7002C25.0771 29.7002 25.7519 29.0257 25.7519 28.1937C25.7519 27.3617 25.0771 26.6872 24.2446 26.6872C23.4122 26.6872 22.7374 27.3617 22.7374 28.1937C22.7374 29.0257 23.4122 29.7002 24.2446 29.7002Z" fill="white"/>
<path d="M33.4602 56C35.0537 56 36.3455 54.7088 36.3455 53.1161C36.3455 51.5233 35.0537 50.2321 33.4602 50.2321C31.8667 50.2321 30.575 51.5233 30.575 53.1161C30.575 54.7088 31.8667 56 33.4602 56Z" fill="white"/>
<path d="M27.3883 50.9638C28.744 50.9638 29.843 49.8654 29.843 48.5103C29.843 47.1553 28.744 46.0569 27.3883 46.0569C26.0327 46.0569 24.9337 47.1553 24.9337 48.5103C24.9337 49.8654 26.0327 50.9638 27.3883 50.9638Z" fill="white"/>
<path d="M23.2112 45.6695C24.3528 45.6695 25.2783 44.7445 25.2783 43.6034C25.2783 42.4623 24.3528 41.5373 23.2112 41.5373C22.0696 41.5373 21.1442 42.4623 21.1442 43.6034C21.1442 44.7445 22.0696 45.6695 23.2112 45.6695Z" fill="white"/>
<path d="M20.7135 40.4612C21.6886 40.4612 22.4791 39.671 22.4791 38.6964C22.4791 37.7217 21.6886 36.9316 20.7135 36.9316C19.7384 36.9316 18.9479 37.7217 18.9479 38.6964C18.9479 39.671 19.7384 40.4612 20.7135 40.4612Z" fill="white"/>
<path d="M19.637 35.6833C20.4694 35.6833 21.1442 35.0088 21.1442 34.1768C21.1442 33.3448 20.4694 32.6703 19.637 32.6703C18.8046 32.6703 18.1298 33.3448 18.1298 34.1768C18.1298 35.0088 18.8046 35.6833 19.637 35.6833Z" fill="white"/>
<path d="M19.5508 31.5081C20.2643 31.5081 20.8427 30.9299 20.8427 30.2168C20.8427 29.5036 20.2643 28.9254 19.5508 28.9254C18.8373 28.9254 18.2589 29.5036 18.2589 30.2168C18.2589 30.9299 18.8373 31.5081 19.5508 31.5081Z" fill="white"/>
<path d="M22.479 55.053C23.8347 55.053 24.9336 53.9546 24.9336 52.5995C24.9336 51.2445 23.8347 50.146 22.479 50.146C21.1234 50.146 20.0244 51.2445 20.0244 52.5995C20.0244 53.9546 21.1234 55.053 22.479 55.053Z" fill="white"/>
<path d="M18.302 49.7156C19.4436 49.7156 20.3691 48.7906 20.3691 47.6495C20.3691 46.5084 19.4436 45.5834 18.302 45.5834C17.1604 45.5834 16.235 46.5084 16.235 47.6495C16.235 48.7906 17.1604 49.7156 18.302 49.7156Z" fill="white"/>
<path d="M15.8043 44.5934C16.8032 44.5934 17.6129 43.784 17.6129 42.7855C17.6129 41.7871 16.8032 40.9777 15.8043 40.9777C14.8054 40.9777 13.9956 41.7871 13.9956 42.7855C13.9956 43.784 14.8054 44.5934 15.8043 44.5934Z" fill="white"/>
<path d="M14.6416 39.7725C15.4978 39.7725 16.1919 39.0787 16.1919 38.2229C16.1919 37.3671 15.4978 36.6733 14.6416 36.6733C13.7854 36.6733 13.0913 37.3671 13.0913 38.2229C13.0913 39.0787 13.7854 39.7725 14.6416 39.7725Z" fill="white"/>
<path d="M14.5555 35.5972C15.2928 35.5972 15.8905 34.9998 15.8905 34.2629C15.8905 33.5259 15.2928 32.9285 14.5555 32.9285C13.8183 32.9285 13.2206 33.5259 13.2206 34.2629C13.2206 34.9998 13.8183 35.5972 14.5555 35.5972Z" fill="white"/>
<path d="M15.2444 32.0676C15.8628 32.0676 16.3641 31.5666 16.3641 30.9485C16.3641 30.3304 15.8628 29.8293 15.2444 29.8293C14.626 29.8293 14.1248 30.3304 14.1248 30.9485C14.1248 31.5666 14.626 32.0676 15.2444 32.0676Z" fill="white"/>
<path d="M3.40201 33.8324C5.28089 33.8324 6.80402 32.31 6.80402 30.432C6.80402 28.5539 5.28089 27.0315 3.40201 27.0315C1.52313 27.0315 0 28.5539 0 30.432C0 32.31 1.52313 33.8324 3.40201 33.8324Z" fill="white"/>
<path d="M10.6367 28.0215C12.2302 28.0215 13.522 26.7304 13.522 25.1376C13.522 23.5448 12.2302 22.2537 10.6367 22.2537C9.04324 22.2537 7.75146 23.5448 7.75146 25.1376C7.75146 26.7304 9.04324 28.0215 10.6367 28.0215Z" fill="white"/>
<path d="M17.6128 24.578C18.9447 24.578 20.0244 23.4988 20.0244 22.1676C20.0244 20.8363 18.9447 19.7571 17.6128 19.7571C16.281 19.7571 15.2013 20.8363 15.2013 22.1676C15.2013 23.4988 16.281 24.578 17.6128 24.578Z" fill="white"/>
<path d="M23.9862 23.1145C25.1278 23.1145 26.0533 22.1895 26.0533 21.0484C26.0533 19.9074 25.1278 18.9823 23.9862 18.9823C22.8446 18.9823 21.9192 19.9074 21.9192 21.0484C21.9192 22.1895 22.8446 23.1145 23.9862 23.1145Z" fill="white"/>
<path d="M29.4553 23.0715C30.4304 23.0715 31.2209 22.2814 31.2209 21.3067C31.2209 20.332 30.4304 19.5419 29.4553 19.5419C28.4802 19.5419 27.6897 20.332 27.6897 21.3067C27.6897 22.2814 28.4802 23.0715 29.4553 23.0715Z" fill="white"/>
<path d="M33.977 24.1476C34.8332 24.1476 35.5273 23.4538 35.5273 22.598C35.5273 21.7422 34.8332 21.0484 33.977 21.0484C33.1208 21.0484 32.4268 21.7422 32.4268 22.598C32.4268 23.4538 33.1208 24.1476 33.977 24.1476Z" fill="white"/>
<path d="M6.93323 15.3236C8.44045 14.8501 10.0769 15.711 10.5075 17.2606C10.9812 18.7671 10.1199 20.4028 8.56964 20.8332C7.06242 21.3067 5.42601 20.4458 4.99537 18.8963C4.56474 17.3897 5.42601 15.7541 6.93323 15.3236Z" fill="white"/>
<path d="M14.8139 17.5619C16.1695 17.5619 17.2685 16.4634 17.2685 15.1084C17.2685 13.7534 16.1695 12.6549 14.8139 12.6549C13.4582 12.6549 12.3593 13.7534 12.3593 15.1084C12.3593 16.4634 13.4582 17.5619 14.8139 17.5619Z" fill="white"/>
<path d="M21.1441 16.0554C22.2857 16.0554 23.2111 15.1303 23.2111 13.9893C23.2111 12.8482 22.2857 11.9232 21.1441 11.9232C20.0025 11.9232 19.077 12.8482 19.077 13.9893C19.077 15.1303 20.0025 16.0554 21.1441 16.0554Z" fill="white"/>
<path d="M26.6562 16.0553C27.6313 16.0553 28.4218 15.2652 28.4218 14.2906C28.4218 13.3159 27.6313 12.5258 26.6562 12.5258C25.6811 12.5258 24.8906 13.3159 24.8906 14.2906C24.8906 15.2652 25.6811 16.0553 26.6562 16.0553Z" fill="white"/>
<path d="M32.5282 16.1597C32.8468 15.391 32.4816 14.5097 31.7125 14.1913C30.9435 13.8729 30.0618 14.2379 29.7432 15.0066C29.4246 15.7754 29.7898 16.6567 30.5589 16.9751C31.328 17.2935 32.2097 16.9285 32.5282 16.1597Z" fill="white"/>
<path d="M34.623 18.8101C35.3365 18.8101 35.9149 18.232 35.9149 17.5188C35.9149 16.8057 35.3365 16.2275 34.623 16.2275C33.9095 16.2275 33.3311 16.8057 33.3311 17.5188C33.3311 18.232 33.9095 18.8101 34.623 18.8101Z" fill="white"/>
<path d="M13.7373 11.2775C15.093 11.2775 16.1919 10.179 16.1919 8.82398C16.1919 7.46895 15.093 6.37048 13.7373 6.37048C12.3817 6.37048 11.2827 7.46895 11.2827 8.82398C11.2827 10.179 12.3817 11.2775 13.7373 11.2775Z" fill="white"/>
<path d="M19.9814 5.63874C21.1441 5.55266 22.1346 6.41353 22.2207 7.57572C22.3068 8.7379 21.4455 9.72791 20.2828 9.81399C19.1201 9.90008 18.1297 9.0392 18.0435 7.87702C17.9574 6.71484 18.8187 5.72483 19.9814 5.63874Z" fill="white"/>
<path d="M25.5797 9.77096C26.5786 9.77096 27.3883 8.96156 27.3883 7.96311C27.3883 6.96467 26.5786 6.15527 25.5797 6.15527C24.5808 6.15527 23.771 6.96467 23.771 7.96311C23.771 8.96156 24.5808 9.77096 25.5797 9.77096Z" fill="white"/>
<path d="M30.1013 10.804C30.9575 10.804 31.6516 10.1102 31.6516 9.25441C31.6516 8.3986 30.9575 7.70483 30.1013 7.70483C29.2451 7.70483 28.551 8.3986 28.551 9.25441C28.551 10.1102 29.2451 10.804 30.1013 10.804Z" fill="white"/>
<path d="M33.5895 12.4827C34.3268 12.4827 34.9244 11.8853 34.9244 11.1484C34.9244 10.4114 34.3268 9.814 33.5895 9.814C32.8522 9.814 32.2545 10.4114 32.2545 11.1484C32.2545 11.8853 32.8522 12.4827 33.5895 12.4827Z" fill="white"/>
<path d="M36.0441 12.2675C36.6901 12.2244 37.2068 12.6979 37.2499 13.3005C37.293 13.9462 36.8193 14.4627 36.2164 14.5058C35.5704 14.5488 35.0537 14.0753 35.0106 13.4727C34.9245 12.8701 35.3982 12.3105 36.0441 12.2675Z" fill="white"/>
</g>
<defs>
<clipPath id="clip0">
<rect width="167" height="56" fill="white"/>
</clipPath>
</defs>
</svg>
