<?xml version="1.0" encoding="UTF-8" standalone="no"?><!DOCTYPE svg PUBLIC "-//W3C//DTD SVG 1.1//EN" "http://www.w3.org/Graphics/SVG/1.1/DTD/svg11.dtd"><svg width="100%" height="100%" viewBox="0 0 413 106" version="1.1" xmlns="http://www.w3.org/2000/svg" xmlns:xlink="http://www.w3.org/1999/xlink" xml:space="preserve" xmlns:serif="http://www.serif.com/" style="fill-rule:evenodd;clip-rule:evenodd;stroke-linejoin:round;stroke-miterlimit:1.41421;"><g><path d="M66.919,26.71c0.532,0.748 1.467,1.064 2.343,0.805c0.216,-0.057 0.432,-0.158 0.604,-0.287c0.964,-0.676 1.193,-1.998 0.518,-2.947c-0.403,-0.575 -1.064,-0.906 -1.754,-0.906c-0.431,0 -0.848,0.13 -1.193,0.374c-0.963,0.676 -1.193,2.013 -0.518,2.961Z" style="fill:#fff;fill-rule:nonzero;"/><path d="M61.5,21.406c0.029,0.646 0.316,1.25 0.805,1.682c1.006,0.905 2.573,0.833 3.479,-0.187c0.431,-0.489 0.661,-1.122 0.632,-1.783c-0.028,-0.661 -0.33,-1.265 -0.819,-1.71c-0.446,-0.389 -1.035,-0.604 -1.624,-0.604c-0.705,-0.014 -1.381,0.288 -1.855,0.805c-0.431,0.503 -0.661,1.135 -0.618,1.797Z" style="fill:#fff;fill-rule:nonzero;"/><path d="M56.095,20.184c0.431,0.23 0.906,0.359 1.394,0.359c0.273,0 0.546,-0.043 0.82,-0.115c0.719,-0.215 1.336,-0.704 1.696,-1.365c0.762,-1.38 0.273,-3.134 -1.121,-3.91c-0.403,-0.216 -0.863,-0.331 -1.323,-0.331c-1.078,0 -2.084,0.575 -2.573,1.452c-0.776,1.394 -0.273,3.134 1.107,3.91Z" style="fill:#fff;fill-rule:nonzero;"/><path d="M48.203,18.502c0.604,0.158 1.237,0.158 1.84,-0.014c1.783,-0.518 2.789,-2.387 2.271,-4.169c-0.331,-1.093 -1.178,-1.955 -2.285,-2.272c-0.274,-0.071 -0.561,-0.114 -0.849,-0.114c-1.494,0 -2.874,1.02 -3.291,2.429c-0.489,1.783 0.531,3.623 2.314,4.14Z" style="fill:#fff;fill-rule:nonzero;"/><path d="M38.658,18.646c2.156,0.1 3.996,-1.553 4.097,-3.723c0.057,-1.035 -0.316,-2.056 -1.006,-2.818c-0.69,-0.762 -1.654,-1.222 -2.674,-1.265l-0.187,0c-2.07,0.029 -3.781,1.639 -3.91,3.709c-0.129,2.156 1.524,3.982 3.68,4.097Z" style="fill:#fff;fill-rule:nonzero;"/><path d="M22.486,17.654c0.446,2.472 2.818,4.111 5.275,3.666c2.459,-0.446 4.112,-2.818 3.666,-5.276c-0.446,-2.458 -2.788,-4.083 -5.247,-3.666c-2.472,0.417 -4.125,2.789 -3.694,5.276Z" style="fill:#fff;fill-rule:nonzero;"/><path d="M67.696,34.818c0.905,-1.021 0.819,-2.574 -0.187,-3.479c-1.021,-0.877 -2.545,-0.805 -3.45,0.173c-0.906,1.006 -0.834,2.572 0.172,3.493c0.461,0.402 1.035,0.632 1.654,0.632c0.244,0 0.474,-0.029 0.704,-0.1c0.417,-0.13 0.805,-0.374 1.107,-0.719Z" style="fill:#fff;fill-rule:nonzero;"/><path d="M62.133,28.78c-0.216,-0.733 -0.705,-1.351 -1.38,-1.725c-0.403,-0.23 -0.863,-0.345 -1.323,-0.331c-1.064,-0.014 -2.041,0.547 -2.573,1.467c-0.762,1.394 -0.259,3.134 1.136,3.895c0.416,0.231 0.905,0.36 1.379,0.36c0.273,0 0.547,-0.043 0.805,-0.115c0.719,-0.216 1.323,-0.704 1.683,-1.366c0.388,-0.661 0.488,-1.452 0.273,-2.185Z" style="fill:#fff;fill-rule:nonzero;"/><path d="M54.212,28.09c0.244,-0.862 0.129,-1.768 -0.302,-2.544c-0.431,-0.777 -1.15,-1.337 -1.998,-1.582c-0.288,-0.086 -0.575,-0.114 -0.863,-0.114c-1.495,0 -2.875,1.02 -3.277,2.429c-0.503,1.783 0.517,3.623 2.3,4.126c1.782,0.488 3.637,-0.547 4.14,-2.315Z" style="fill:#fff;fill-rule:nonzero;"/><path d="M44.652,26.84c0.058,-1.036 -0.301,-2.056 -1.006,-2.832c-0.69,-0.762 -1.653,-1.222 -2.688,-1.265c-0.072,0 -0.129,-0.015 -0.201,-0.015c-1.999,0 -3.795,1.697 -3.896,3.709c-0.101,2.157 1.553,3.982 3.695,4.111c0.071,0 0.143,0 0.215,0c2.085,0 3.781,-1.639 3.881,-3.708Z" style="fill:#fff;fill-rule:nonzero;"/><path d="M28.868,24.194c-2.515,-0.014 -4.571,2.027 -4.585,4.543c-0.014,2.516 2.027,4.571 4.543,4.586c0.287,0 0.56,-0.029 0.847,-0.072c0.173,-0.029 0.346,-0.072 0.518,-0.115c2.415,-0.719 3.781,-3.278 3.062,-5.693c-0.589,-1.94 -2.372,-3.263 -4.385,-3.249Z" style="fill:#fff;fill-rule:nonzero;"/><path d="M10.914,36.413c0.834,1.97 2.746,3.249 4.887,3.264c0.504,0 1.007,-0.072 1.495,-0.216c0.202,-0.057 0.403,-0.13 0.604,-0.216c2.717,-1.149 3.982,-4.283 2.832,-7.001c-1.15,-2.716 -4.284,-3.981 -7.001,-2.832c-2.716,1.151 -3.967,4.27 -2.817,7.001Z" style="fill:#fff;fill-rule:nonzero;"/><path d="M66.086,40.209c-0.417,-0.231 -0.877,-0.346 -1.337,-0.346c-1.078,0 -2.07,0.575 -2.559,1.452c-0.762,1.38 -0.273,3.134 1.121,3.896c0.676,0.374 1.467,0.474 2.199,0.258c1.524,-0.459 2.387,-2.055 1.927,-3.579c-0.216,-0.718 -0.705,-1.322 -1.351,-1.681Z" style="fill:#fff;fill-rule:nonzero;"/><path d="M53.392,41.948c0.906,1.61 2.933,2.199 4.557,1.294c1.625,-0.906 2.199,-2.933 1.294,-4.557c-0.431,-0.777 -1.15,-1.337 -1.998,-1.582c-0.273,-0.086 -0.575,-0.115 -0.862,-0.115c-1.495,0 -2.818,0.978 -3.278,2.401c-0.244,0.862 -0.144,1.783 0.287,2.559Z" style="fill:#fff;fill-rule:nonzero;"/><path d="M49.985,39.978c0.101,-2.155 -1.552,-3.982 -3.708,-4.111l-0.187,0c-2.012,0 -3.81,1.697 -3.896,3.709c-0.115,2.156 1.538,3.996 3.695,4.111l0.187,0c0.373,0 0.747,-0.057 1.106,-0.158c1.596,-0.475 2.717,-1.898 2.803,-3.551Z" style="fill:#fff;fill-rule:nonzero;"/><path d="M34.201,46.462c0.259,0 0.532,-0.029 0.791,-0.072c0.173,-0.029 0.331,-0.072 0.504,-0.116c2.415,-0.718 3.78,-3.248 3.076,-5.663c-0.705,-2.415 -3.249,-3.781 -5.664,-3.076c-2.415,0.719 -3.781,3.248 -3.076,5.663c0.575,1.941 2.357,3.278 4.369,3.264Z" style="fill:#fff;fill-rule:nonzero;"/><path d="M26.094,49.466c0.532,-1.308 0.518,-2.789 -0.029,-4.083c-0.862,-1.969 -2.803,-3.234 -4.945,-3.249c-0.704,0 -1.394,0.144 -2.041,0.417c-1.308,0.547 -2.343,1.582 -2.86,2.905c-1.108,2.745 0.215,5.865 2.961,6.971c0.632,0.259 1.308,0.389 1.984,0.389c0.503,0 1.02,-0.073 1.509,-0.216c0.201,-0.058 0.388,-0.13 0.589,-0.201c1.265,-0.561 2.3,-1.61 2.832,-2.933Z" style="fill:#fff;fill-rule:nonzero;"/><path d="M12.682,53.649c-1.179,-1.61 -3.062,-2.573 -5.06,-2.587c-0.59,0 -1.193,0.086 -1.754,0.259c-3.306,1.02 -5.16,4.513 -4.14,7.819c1.007,3.249 4.413,5.118 7.691,4.184c3.321,-0.978 5.204,-4.471 4.212,-7.777c-0.201,-0.676 -0.532,-1.323 -0.949,-1.898Z" style="fill:#fff;fill-rule:nonzero;"/><path d="M79.814,75.557c-0.101,-1.092 -1.021,-1.941 -2.113,-1.941c-0.058,0 -0.115,0 -0.187,0.015c-0.906,0.086 -1.668,0.732 -1.869,1.624c-0.057,0.216 -0.072,0.445 -0.057,0.676c0.1,1.092 1.006,1.911 2.098,1.926c0.058,0 0.116,0 0.187,-0.015c0.561,-0.057 1.078,-0.33 1.438,-0.762c0.373,-0.402 0.546,-0.963 0.503,-1.523Z" style="fill:#fff;fill-rule:nonzero;"/><path d="M81.294,73.199c-0.316,1.323 0.504,2.66 1.826,2.99c0.446,0.101 0.906,0.086 1.337,-0.057c0.618,-0.216 1.121,-0.661 1.409,-1.236c0.302,-0.575 0.359,-1.251 0.158,-1.869c-0.187,-0.633 -0.633,-1.15 -1.222,-1.438c-0.345,-0.172 -0.719,-0.273 -1.107,-0.273c-0.259,0 -0.518,0.043 -0.762,0.129c-0.805,0.245 -1.437,0.92 -1.639,1.754Z" style="fill:#fff;fill-rule:nonzero;"/><path d="M87.26,69.275c-0.359,1.524 0.561,3.062 2.084,3.464c0.231,0.058 0.475,0.087 0.705,0.087c0.517,0 1.02,-0.144 1.466,-0.417c1.308,-0.791 1.768,-2.645 0.978,-3.953c-0.532,-0.863 -1.466,-1.381 -2.473,-1.381c-1.308,0.015 -2.458,0.92 -2.76,2.2Z" style="fill:#fff;fill-rule:nonzero;"/><path d="M96.316,67.219c0.863,0 1.697,-0.331 2.315,-0.934c1.265,-1.236 1.308,-3.464 0.072,-4.744c-0.633,-0.647 -1.495,-1.006 -2.401,-1.006c-0.877,0 -1.711,0.33 -2.343,0.934c-1.322,1.294 -1.351,3.421 -0.058,4.744c0.619,0.633 1.452,0.992 2.344,1.006l0.071,0Z" style="fill:#fff;fill-rule:nonzero;"/><path d="M105.157,57.372c1.15,-1.782 0.619,-4.255 -1.15,-5.419c-1.797,-1.164 -4.197,-0.661 -5.362,1.135l-0.014,0.015c-0.244,0.374 -0.417,0.776 -0.517,1.207c-0.389,1.61 0.273,3.292 1.652,4.198c0.633,0.417 1.366,0.632 2.128,0.632c0.287,0 0.561,-0.029 0.834,-0.086c0.992,-0.201 1.868,-0.819 2.429,-1.682Z" style="fill:#fff;fill-rule:nonzero;"/><path d="M107.558,39.576c-0.503,-0.187 -1.021,-0.273 -1.553,-0.273c-1.926,0 -3.637,1.207 -4.298,3.019c-0.058,0.158 -0.1,0.316 -0.144,0.488c-0.546,2.257 0.691,4.572 2.875,5.362c0.489,0.173 1.007,0.273 1.539,0.273c1.926,0 3.637,-1.207 4.298,-3.004c0.834,-2.387 -0.388,-5.003 -2.717,-5.865Z" style="fill:#fff;fill-rule:nonzero;"/><path d="M70.067,68.915c-0.316,1.323 0.504,2.645 1.812,2.962c0.186,0.043 0.374,0.072 0.561,0.072c0.258,0 0.517,-0.043 0.776,-0.129c0.618,-0.216 1.121,-0.662 1.408,-1.237c0.619,-1.193 0.159,-2.659 -1.035,-3.278c0,0 -0.014,0 -0.014,-0.014c-0.345,-0.187 -0.733,-0.273 -1.121,-0.273c-0.259,0 -0.518,0.043 -0.762,0.115c-0.805,0.273 -1.423,0.949 -1.625,1.782Z" style="fill:#fff;fill-rule:nonzero;"/><path d="M78.118,68.441c0.747,0.187 1.523,0.057 2.17,-0.331c1.308,-0.805 1.754,-2.616 0.978,-3.953c-0.532,-0.848 -1.466,-1.365 -2.473,-1.365c-1.322,0 -2.472,0.905 -2.774,2.199c-0.187,0.733 -0.058,1.509 0.33,2.142c0.388,0.647 1.021,1.121 1.769,1.308Z" style="fill:#fff;fill-rule:nonzero;"/><path d="M85.061,62.921c0.877,0 1.711,-0.331 2.329,-0.949c1.279,-1.308 1.322,-3.392 0.071,-4.743c-1.279,-1.323 -3.392,-1.352 -4.729,-0.072c-1.322,1.293 -1.366,3.407 -0.072,4.729c0.618,0.633 1.466,1.006 2.343,1.021l0.058,0.014Z" style="fill:#fff;fill-rule:nonzero;"/><path d="M93.916,53.074c0.561,-0.862 0.748,-1.926 0.517,-2.933c-0.201,-1.02 -0.805,-1.911 -1.667,-2.486c-1.812,-1.165 -4.227,-0.647 -5.405,1.178c-0.245,0.374 -0.417,0.776 -0.518,1.208c-0.503,2.099 0.791,4.212 2.89,4.715c0.287,0.072 0.589,0.101 0.891,0.115c0.273,0 0.561,-0.029 0.833,-0.086c1.021,-0.23 1.898,-0.834 2.459,-1.711Z" style="fill:#fff;fill-rule:nonzero;"/><path d="M93.211,43.874c2.387,0.819 4.989,-0.445 5.808,-2.846c0.805,-2.329 -0.388,-4.888 -2.703,-5.764c-1.135,-0.417 -2.386,-0.36 -3.478,0.158c-1.093,0.517 -1.941,1.437 -2.358,2.573c-0.057,0.172 -0.1,0.33 -0.143,0.503c-0.532,2.271 0.704,4.571 2.874,5.376Z" style="fill:#fff;fill-rule:nonzero;"/><path d="M95.842,30.749c0.216,0.029 0.432,0.044 0.647,0.044c2.947,0 5.348,-2.401 5.348,-5.348c0,-2.702 -2.013,-4.988 -4.701,-5.304c-0.216,-0.029 -0.432,-0.043 -0.647,-0.043c-2.458,-0.015 -4.6,1.681 -5.175,4.068c-0.043,0.215 -0.086,0.416 -0.115,0.632c-0.187,1.409 0.216,2.847 1.107,3.968c0.862,1.107 2.142,1.826 3.536,1.983Z" style="fill:#fff;fill-rule:nonzero;"/><path d="M67.552,64.373c0.187,-0.719 0.086,-1.495 -0.302,-2.142c-0.518,-0.862 -1.452,-1.394 -2.458,-1.394c-1.322,0 -2.473,0.905 -2.789,2.199c-0.172,0.748 -0.057,1.524 0.331,2.171c0.819,1.337 2.573,1.768 3.924,0.963c0.661,-0.417 1.121,-1.064 1.294,-1.797Z" style="fill:#fff;fill-rule:nonzero;"/><path d="M71.074,60.966c0.862,0 1.696,-0.331 2.314,-0.934c1.28,-1.236 1.323,-3.451 0.087,-4.744c-1.28,-1.337 -3.379,-1.38 -4.716,-0.101l-0.014,0.015c-0.46,0.445 -0.776,1.02 -0.92,1.638c-0.446,1.783 0.647,3.594 2.444,4.04c0.244,0.057 0.517,0.086 0.805,0.086Z" style="fill:#fff;fill-rule:nonzero;"/><path d="M74.524,52.283c1.811,1.165 4.226,0.648 5.391,-1.164c1.121,-1.754 0.589,-4.269 -1.151,-5.405c-1.811,-1.164 -4.226,-0.661 -5.404,1.15c-1.165,1.811 -0.647,4.241 1.164,5.419Z" style="fill:#fff;fill-rule:nonzero;"/><path d="M82.301,33.323c-0.489,-0.173 -1.021,-0.274 -1.539,-0.274c-1.911,0 -3.622,1.208 -4.283,3.005c-0.058,0.158 -0.101,0.33 -0.144,0.489c-0.546,2.257 0.69,4.571 2.875,5.362c0.489,0.187 1.021,0.273 1.552,0.273c2.516,0 4.572,-2.042 4.572,-4.557c-0.015,-1.927 -1.222,-3.637 -3.033,-4.298Z" style="fill:#fff;fill-rule:nonzero;"/><path d="M83.12,18.186c-0.216,-0.029 -0.431,-0.043 -0.647,-0.043c-2.458,0 -4.614,1.681 -5.175,4.082c-0.057,0.202 -0.086,0.403 -0.115,0.604c-0.359,2.933 1.711,5.592 4.643,5.966c0.202,0.028 0.403,0.043 0.619,0.043c2.673,0 5.002,-2.07 5.318,-4.701c0.374,-2.918 -1.681,-5.577 -4.6,-5.951c-0.014,0.014 -0.028,0.014 -0.043,0Z" style="fill:#fff;fill-rule:nonzero;"/><path d="M80.705,13.097c0.216,0 0.446,-0.015 0.661,-0.043c3.436,-0.374 5.923,-3.45 5.549,-6.886c-0.345,-3.162 -3.004,-5.563 -6.195,-5.577c-0.216,0 -0.446,0.014 -0.662,0.029c-2.631,0.287 -4.801,2.184 -5.419,4.758c-0.158,0.69 -0.216,1.409 -0.144,2.127c0.331,3.177 3.005,5.592 6.21,5.592Z" style="fill:#fff;fill-rule:nonzero;"/><path d="M31.226,56.941c-0.848,-0.805 -2.185,-0.762 -2.99,0.086c-0.158,0.158 -0.273,0.345 -0.374,0.547c-0.23,0.517 -0.258,1.092 -0.057,1.624c0.187,0.532 0.575,0.963 1.078,1.208c0.273,0.129 0.575,0.201 0.891,0.201c1.179,0 2.128,-0.949 2.128,-2.114c-0.015,-0.589 -0.245,-1.149 -0.676,-1.552Z" style="fill:#fff;fill-rule:nonzero;"/><path d="M28.969,62.245c-1.337,-0.258 -2.631,0.618 -2.889,1.955c-0.245,1.309 0.575,2.573 1.868,2.875c1.323,0.288 2.617,-0.56 2.904,-1.868l0,-0.015c0.302,-1.322 -0.532,-2.63 -1.84,-2.918c-0.014,-0.014 -0.029,-0.029 -0.043,-0.029Z" style="fill:#fff;fill-rule:nonzero;"/><path d="M28.653,74.953c1.581,-0.043 2.832,-1.351 2.803,-2.918c-0.014,-0.776 -0.331,-1.495 -0.891,-2.027c-0.518,-0.503 -1.222,-0.791 -1.955,-0.791c-0.791,0 -1.538,0.302 -2.085,0.877c-0.531,0.546 -0.819,1.28 -0.805,2.041c0.029,1.51 1.38,2.833 2.875,2.833l0.058,-0.015Z" style="fill:#fff;fill-rule:nonzero;"/><path d="M30.795,83.909c0.244,0 0.503,-0.029 0.747,-0.086c1.797,-0.446 2.89,-2.272 2.43,-4.069c-0.159,-0.618 -0.475,-1.178 -0.935,-1.61c-0.618,-0.589 -1.452,-0.92 -2.314,-0.934c-0.273,0 -0.547,0.029 -0.82,0.1c-1.796,0.461 -2.875,2.272 -2.429,4.069c0.374,1.437 1.797,2.53 3.321,2.53Z" style="fill:#fff;fill-rule:nonzero;"/><path d="M37.163,93.195c1.926,-0.992 2.674,-3.364 1.667,-5.29c-0.201,-0.388 -0.46,-0.733 -0.776,-1.035c-1.193,-1.135 -2.975,-1.409 -4.456,-0.647c-0.934,0.474 -1.624,1.308 -1.941,2.3c-0.316,0.977 -0.23,2.041 0.245,2.962c0.689,1.308 2.055,2.127 3.536,2.113c0.604,0.014 1.193,-0.13 1.725,-0.403Z" style="fill:#fff;fill-rule:nonzero;"/><path d="M46.636,96.041c-0.115,-0.129 -0.23,-0.259 -0.345,-0.374c-1.682,-1.595 -4.298,-1.681 -6.066,-0.186c-1.926,1.624 -2.171,4.513 -0.547,6.44c0.878,1.035 2.157,1.624 3.508,1.624c1.064,0 2.085,-0.374 2.904,-1.064c1.912,-1.624 2.156,-4.499 0.546,-6.44Z" style="fill:#fff;fill-rule:nonzero;"/><path d="M38.313,54.641c-0.173,-0.043 -0.345,-0.058 -0.517,-0.058c-0.475,0 -0.949,0.144 -1.352,0.403c-1.136,0.748 -1.466,2.271 -0.719,3.407c0.748,1.135 2.272,1.466 3.408,0.718c0.545,-0.359 0.92,-0.905 1.063,-1.537c0.287,-1.323 -0.56,-2.645 -1.883,-2.933Z" style="fill:#fff;fill-rule:nonzero;"/><path d="M37.997,67.363c1.595,-0.058 2.846,-1.38 2.788,-2.976c-0.028,-0.747 -0.344,-1.466 -0.876,-1.983c-0.518,-0.503 -1.208,-0.777 -1.927,-0.777l-0.1,0c-0.762,0 -1.481,0.316 -1.998,0.863c-0.532,0.546 -0.82,1.294 -0.805,2.056c0.028,1.523 1.365,2.817 2.903,2.817l0.015,0Z" style="fill:#fff;fill-rule:nonzero;"/><path d="M37.177,71.244c-0.459,0.762 -0.589,1.668 -0.373,2.53c0.359,1.438 1.782,2.53 3.306,2.53c0.258,0 0.503,-0.029 0.748,-0.1c1.796,-0.446 2.874,-2.271 2.428,-4.054c-0.157,-0.618 -0.474,-1.179 -0.934,-1.61c-1.322,-1.279 -3.435,-1.237 -4.715,0.1c-0.172,0.173 -0.33,0.388 -0.46,0.604Z" style="fill:#fff;fill-rule:nonzero;"/><path d="M41.001,80.918c-0.316,0.978 -0.23,2.056 0.245,2.962c0.69,1.308 2.055,2.127 3.536,2.113c0.589,0 1.179,-0.143 1.711,-0.402c1.911,-0.992 2.673,-3.335 1.696,-5.262c-0.202,-0.402 -0.461,-0.761 -0.791,-1.063c-0.719,-0.69 -1.682,-1.064 -2.674,-1.064c-0.618,0 -1.222,0.144 -1.768,0.431c-0.949,0.474 -1.639,1.294 -1.955,2.285Z" style="fill:#fff;fill-rule:nonzero;"/><path d="M55.966,88.451c-0.115,-0.129 -0.231,-0.273 -0.36,-0.388c-0.848,-0.805 -1.955,-1.251 -3.119,-1.251c-2.516,0 -4.557,2.056 -4.557,4.572c0,1.078 0.388,2.113 1.078,2.932c0.862,1.035 2.128,1.639 3.479,1.625c1.078,0 2.113,-0.374 2.947,-1.05c1.897,-1.624 2.156,-4.513 0.532,-6.44Z" style="fill:#fff;fill-rule:nonzero;"/><path d="M67.509,96.084c-0.158,-0.143 -0.316,-0.287 -0.489,-0.417c-0.92,-0.704 -2.041,-1.078 -3.206,-1.078c-0.258,0 -0.517,0.015 -0.761,0.058c-2.918,0.417 -4.945,3.133 -4.528,6.052c0.416,2.918 3.133,4.945 6.051,4.529c1.395,-0.202 2.645,-0.95 3.493,-2.071c1.639,-2.17 1.395,-5.204 -0.56,-7.073Z" style="fill:#fff;fill-rule:nonzero;"/><path d="M46.665,56.165c1.595,-0.043 2.846,-1.366 2.817,-2.961c-0.014,-0.763 -0.33,-1.481 -0.876,-1.998c-0.547,-0.518 -1.266,-0.805 -2.027,-0.792c-1.581,0.029 -2.847,1.337 -2.818,2.933c0.029,1.51 1.351,2.818 2.847,2.818l0.057,0Z" style="fill:#fff;fill-rule:nonzero;"/><path d="M45.501,62.576c0.359,1.438 1.782,2.53 3.306,2.53c0.244,0 0.503,-0.029 0.733,-0.086c1.797,-0.446 2.889,-2.257 2.458,-4.054c-0.158,-0.618 -0.489,-1.179 -0.949,-1.61c-0.618,-0.589 -1.437,-0.92 -2.3,-0.92c-0.273,0 -0.546,0.029 -0.819,0.101c-1.783,0.445 -2.861,2.257 -2.429,4.039Z" style="fill:#fff;fill-rule:nonzero;"/><path d="M49.928,72.711c0.69,1.308 2.055,2.113 3.522,2.113c0.589,0 1.179,-0.144 1.711,-0.403c1.926,-0.978 2.702,-3.32 1.725,-5.247c-0.978,-1.926 -3.321,-2.703 -5.247,-1.725c-1.927,0.978 -2.703,3.321 -1.725,5.247c0,0 0.014,0 0.014,0.015Z" style="fill:#fff;fill-rule:nonzero;"/><path d="M57.676,83.132c0.862,1.035 2.128,1.625 3.479,1.625c2.53,0 4.571,-2.041 4.571,-4.571c0,-1.079 -0.373,-2.113 -1.063,-2.947c-0.115,-0.13 -0.231,-0.245 -0.346,-0.36c-1.681,-1.61 -4.298,-1.696 -6.08,-0.187c-1.927,1.625 -2.171,4.5 -0.561,6.44Z" style="fill:#fff;fill-rule:nonzero;"/><path d="M76.766,91.959c1.625,-2.171 1.38,-5.204 -0.589,-7.087c-2.127,-2.027 -5.491,-1.955 -7.518,0.158c-0.144,0.158 -0.288,0.316 -0.417,0.489c-0.848,1.15 -1.208,2.587 -0.992,3.996c0.374,2.616 2.602,4.557 5.247,4.571c0.244,0 0.489,-0.014 0.733,-0.043c1.423,-0.201 2.688,-0.948 3.536,-2.084Z" style="fill:#fff;fill-rule:nonzero;"/><path d="M92.076,90.996c-0.518,-0.489 -1.122,-0.892 -1.768,-1.179c-0.791,-0.359 -1.654,-0.532 -2.516,-0.532c-3.464,0 -6.253,2.803 -6.253,6.267c0,1.711 0.704,3.35 1.94,4.529c0.518,0.489 1.122,0.891 1.769,1.178c0.79,0.36 1.653,0.533 2.515,0.533c3.465,-0.015 6.268,-2.818 6.253,-6.283c0,-1.71 -0.704,-3.335 -1.94,-4.513Z" style="fill:#fff;fill-rule:nonzero;"/><rect x="149.415" y="15.046" width="4.576" height="75.641" style="fill:#fff;fill-rule:nonzero;"/><path d="M257.788,52.867c0,5.509 -0.797,10.682 -2.392,15.52c-1.595,4.838 -3.9,9.04 -6.916,12.607c-3.016,3.567 -6.708,6.374 -11.077,8.422c-4.368,2.048 -9.326,3.073 -14.873,3.073c-5.546,0 -10.521,-1.025 -14.924,-3.073c-4.403,-2.048 -8.112,-4.855 -11.129,-8.422c-3.016,-3.567 -5.321,-7.769 -6.916,-12.607c-1.595,-4.838 -2.392,-10.011 -2.392,-15.52c0,-5.509 0.797,-10.683 2.392,-15.52c1.595,-4.838 3.9,-9.04 6.916,-12.607c3.017,-3.567 6.726,-6.374 11.129,-8.423c4.403,-2.048 9.378,-3.071 14.924,-3.071c5.547,0 10.505,1.023 14.873,3.071c4.369,2.049 8.061,4.856 11.077,8.423c3.016,3.567 5.321,7.769 6.916,12.607c1.595,4.837 2.392,10.011 2.392,15.52Zm-66.043,0c0,4.873 0.694,9.464 2.08,13.772c1.387,4.308 3.398,8.069 6.032,11.283c2.635,3.213 5.859,5.774 9.673,7.68c3.814,1.907 8.147,2.861 13,2.861c4.854,0 9.17,-0.954 12.949,-2.861c3.779,-1.906 6.986,-4.467 9.62,-7.68c2.635,-3.214 4.646,-6.975 6.033,-11.283c1.387,-4.308 2.08,-8.899 2.08,-13.772c0,-4.873 -0.693,-9.464 -2.08,-13.772c-1.387,-4.309 -3.398,-8.069 -6.033,-11.283c-2.634,-3.214 -5.841,-5.773 -9.62,-7.681c-3.779,-1.906 -8.095,-2.86 -12.949,-2.86c-4.853,0 -9.186,0.954 -13,2.86c-3.814,1.908 -7.038,4.467 -9.673,7.681c-2.634,3.214 -4.645,6.974 -6.032,11.283c-1.386,4.308 -2.08,8.899 -2.08,13.772Z" style="fill:#fff;fill-rule:nonzero;"/><path d="M278.589,19.072l0,-4.026l56.891,0l0,4.026l-26.209,0l0,71.615l-4.577,0l0,-71.615l-26.105,0Z" style="fill:#fff;fill-rule:nonzero;"/><path d="M412.235,90.687l-4.888,0l-26.729,-71.085l-0.208,0l-27.458,71.085l-4.887,0l29.849,-75.641l4.992,0l29.329,75.641Z" style="fill:#fff;fill-rule:nonzero;"/></g></svg>